#Comment line ignore any data following # character 
#Hierarchical Translation and Rotation (.htr) file 
[Header]	
#Header keywords are followed by a single value 
FileType HTR		#Single word string
DataType HTRS		#Translation followed by rotation and scale data
FileVersion 1		#integer
NumSegments 64		#integer
NumFrames 3		#integer
DataFrameRate 30		#integer, data frame rate in this file
EulerRotationOrder ZYX
CalibrationUnits mm
RotationUnits Degrees
GlobalAxisofGravity Y
BoneLengthAxis Y
ScaleFactor 1.00
[SegmentNames&Hierarchy]
#CHILD	PARENT
Pinger_Root GLOBAL
Pelvis Pinger_Root
L_Hip Pelvis
R_Hip Pelvis
Rear_Leg01 Pelvis
Spine1 Pelvis
L_Leg01 L_Hip
L_Leg02 L_Leg01
L_Leg03 L_Leg02
L_Foot L_Leg03
L_Toe1_01 L_Foot
L_Toe2_01 L_Foot
L_Toe3_01 L_Foot
planeAlignerLeft L_Foot
L_Toe1_02 L_Toe1_01
L_Toe1_03 L_Toe1_02
L_Toe2_02 L_Toe2_01
L_Toe2_03 L_Toe2_02
L_Toe3_02 L_Toe3_01
L_Toe3_03 L_Toe3_02
planeLockWeightLeft planeAlignerLeft
R_Leg01 R_Hip
R_Leg02 R_Leg01
R_Leg03 R_Leg02
R_Foot R_Leg03
planeAlignerRight R_Foot
R_Toe1_01 R_Foot
R_Toe2_01 R_Foot
R_Toe3_01 R_Foot
planeLockWeightRight planeAlignerRight
R_Toe1_02 R_Toe1_01
R_Toe1_03 R_Toe1_02
R_Toe2_02 R_Toe2_01
R_Toe2_03 R_Toe2_02
R_Toe3_02 R_Toe3_01
R_Toe3_03 R_Toe3_02
Rear_Leg02 Rear_Leg01
Rear_Leg03 Rear_Leg02
Rear_Leg04 Rear_Leg03
Rear_Foot Rear_Leg04
planeAlignerCenter Rear_Foot
Rear_Toe1_01 Rear_Foot
Rear_Toe2_01 Rear_Foot
Rear_Toe3_01 Rear_Foot
planeLockWeightCenter planeAlignerCenter
Rear_Toe1_02 Rear_Toe1_01
Rear_Toe1_03 Rear_Toe1_02
Rear_Toe2_02 Rear_Toe2_01
Rear_Toe2_03 Rear_Toe2_02
Rear_Toe3_02 Rear_Toe3_01
Rear_Toe3_03 Rear_Toe3_02
Back_Bone Spine1
Head Spine1
Motor_Bone Back_Bone
Ping_Mechanism Back_Bone
BN_LookIK Head
bottomMouth Head
L_Mouth01 Head
L_mouthFront Head
mouthGun Head
R_Mouth01 Head
R_mouthFront Head
TopMouth Head
weapon_bone Head
[BasePosition]
#SegmentName Tx, Ty, Tz, Rx, Ry, Rz, BoneLength
Pinger_Root 0.000000 0.000000 0.000000 -90.000000 0.000000 0.000000 10.000000 
Pelvis 0.000000 0.000000 0.000000 0.000000 0.000000 0.000000 10.000000 
L_Hip 0.000000 0.000000 0.000000 0.000000 0.000000 0.000000 10.000000 
R_Hip 0.000000 0.000000 0.000000 0.000000 0.000000 0.000000 10.000000 
Rear_Leg01 0.000000 0.000000 0.000000 0.000000 0.000000 0.000000 10.000000 
Spine1 0.000000 0.000000 0.000000 0.000000 0.000000 0.000000 10.000000 
L_Leg01 0.000000 0.000000 0.000000 0.000000 0.000000 0.000000 10.000000 
L_Leg02 0.000000 0.000000 0.000000 0.000000 0.000000 0.000000 10.000000 
L_Leg03 0.000000 0.000000 0.000000 0.000000 0.000000 0.000000 10.000000 
L_Foot 0.000000 0.000000 0.000000 0.000000 0.000000 0.000000 10.000000 
L_Toe1_01 0.000000 0.000000 0.000000 0.000000 0.000000 0.000000 10.000000 
L_Toe2_01 0.000000 0.000000 0.000000 0.000000 0.000000 0.000000 10.000000 
L_Toe3_01 0.000000 0.000000 0.000000 0.000000 0.000000 0.000000 10.000000 
planeAlignerLeft 0.000000 0.000000 0.000000 0.000000 0.000000 0.000000 10.000000 
L_Toe1_02 0.000000 0.000000 0.000000 0.000000 0.000000 0.000000 10.000000 
L_Toe1_03 0.000000 0.000000 0.000000 0.000000 0.000000 0.000000 10.000000 
L_Toe2_02 0.000000 0.000000 0.000000 0.000000 0.000000 0.000000 10.000000 
L_Toe2_03 0.000000 0.000000 0.000000 0.000000 0.000000 0.000000 10.000000 
L_Toe3_02 0.000000 0.000000 0.000000 0.000000 0.000000 0.000000 10.000000 
L_Toe3_03 0.000000 0.000000 0.000000 0.000000 0.000000 0.000000 10.000000 
planeLockWeightLeft 0.000000 0.000000 0.000000 0.000000 0.000000 0.000000 10.000000 
R_Leg01 0.000000 0.000000 0.000000 0.000000 0.000000 0.000000 10.000000 
R_Leg02 0.000000 0.000000 0.000000 0.000000 0.000000 0.000000 10.000000 
R_Leg03 0.000000 0.000000 0.000000 0.000000 0.000000 0.000000 10.000000 
R_Foot 0.000000 0.000000 0.000000 0.000000 0.000000 0.000000 10.000000 
planeAlignerRight 0.000000 0.000000 0.000000 0.000000 0.000000 0.000000 10.000000 
R_Toe1_01 0.000000 0.000000 0.000000 0.000000 0.000000 0.000000 10.000000 
R_Toe2_01 0.000000 0.000000 0.000000 0.000000 0.000000 0.000000 10.000000 
R_Toe3_01 0.000000 0.000000 0.000000 0.000000 0.000000 0.000000 10.000000 
planeLockWeightRight 0.000000 0.000000 0.000000 0.000000 0.000000 0.000000 10.000000 
R_Toe1_02 0.000000 0.000000 0.000000 0.000000 0.000000 0.000000 10.000000 
R_Toe1_03 0.000000 0.000000 0.000000 0.000000 0.000000 0.000000 10.000000 
R_Toe2_02 0.000000 0.000000 0.000000 0.000000 0.000000 0.000000 10.000000 
R_Toe2_03 0.000000 0.000000 0.000000 0.000000 0.000000 0.000000 10.000000 
R_Toe3_02 0.000000 0.000000 0.000000 0.000000 0.000000 0.000000 10.000000 
R_Toe3_03 0.000000 0.000000 0.000000 0.000000 0.000000 0.000000 10.000000 
Rear_Leg02 0.000000 0.000000 0.000000 0.000000 0.000000 0.000000 10.000000 
Rear_Leg03 0.000000 0.000000 0.000000 0.000000 0.000000 0.000000 10.000000 
Rear_Leg04 0.000000 0.000000 0.000000 0.000000 0.000000 0.000000 10.000000 
Rear_Foot 0.000000 0.000000 0.000000 0.000000 0.000000 0.000000 10.000000 
planeAlignerCenter 0.000000 0.000000 0.000000 0.000000 0.000000 0.000000 10.000000 
Rear_Toe1_01 0.000000 0.000000 0.000000 0.000000 0.000000 0.000000 10.000000 
Rear_Toe2_01 0.000000 0.000000 0.000000 0.000000 0.000000 0.000000 10.000000 
Rear_Toe3_01 0.000000 0.000000 0.000000 0.000000 0.000000 0.000000 10.000000 
planeLockWeightCenter 0.000000 0.000000 0.000000 0.000000 0.000000 0.000000 10.000000 
Rear_Toe1_02 0.000000 0.000000 0.000000 0.000000 0.000000 0.000000 10.000000 
Rear_Toe1_03 0.000000 0.000000 0.000000 0.000000 0.000000 0.000000 10.000000 
Rear_Toe2_02 0.000000 0.000000 0.000000 0.000000 0.000000 0.000000 10.000000 
Rear_Toe2_03 0.000000 0.000000 0.000000 0.000000 0.000000 0.000000 10.000000 
Rear_Toe3_02 0.000000 0.000000 0.000000 0.000000 0.000000 0.000000 10.000000 
Rear_Toe3_03 0.000000 0.000000 0.000000 0.000000 0.000000 0.000000 10.000000 
Back_Bone 0.000000 0.000000 0.000000 0.000000 0.000000 0.000000 10.000000 
Head 0.000000 0.000000 0.000000 0.000000 0.000000 0.000000 10.000000 
Motor_Bone 0.000000 0.000000 0.000000 0.000000 0.000000 0.000000 10.000000 
Ping_Mechanism 0.000000 0.000000 0.000000 0.000000 0.000000 0.000000 10.000000 
BN_LookIK 0.000000 0.000000 0.000000 0.000000 0.000000 0.000000 10.000000 
bottomMouth 0.000000 0.000000 0.000000 0.000000 0.000000 0.000000 10.000000 
L_Mouth01 0.000000 0.000000 0.000000 0.000000 0.000000 0.000000 10.000000 
L_mouthFront 0.000000 0.000000 0.000000 0.000000 0.000000 0.000000 10.000000 
mouthGun 0.000000 0.000000 0.000000 0.000000 0.000000 0.000000 10.000000 
R_Mouth01 0.000000 0.000000 0.000000 0.000000 0.000000 0.000000 10.000000 
R_mouthFront 0.000000 0.000000 0.000000 0.000000 0.000000 0.000000 10.000000 
TopMouth 0.000000 0.000000 0.000000 0.000000 0.000000 0.000000 10.000000 
weapon_bone 0.000000 0.000000 0.000000 0.000000 0.000000 0.000000 10.000000 
#Beginning of Data. Separated by tabs
#Fr	Tx	Ty	Tz	Rx	Ry	Rz	SF
[Pinger_Root]
65 0.000000 0.000000 0.000000 -0.000072 0.000020 31.286201 0.000000
66 0.000000 0.000000 0.000000 -0.000072 0.000022 33.282871 0.000000
67 0.000000 0.000000 0.000000 -0.000072 0.000023 35.279530 0.000000
[Pelvis]
65 2063.750244 -563.661926 2883.728027 -25.640957 -72.028580 -4.838014 3590.636230
66 1842.280884 -451.077881 2864.052979 -28.020452 -73.103340 -3.238863 3435.152100
67 1618.750488 -332.202423 2850.612549 -33.246353 -75.033112 1.351449 3294.951416
[L_Hip]
65 5.766392 125.831482 872.656799 160.158691 -45.484905 122.312202 881.701050
66 5.766392 125.831482 872.656799 160.158691 -45.484905 122.312202 881.701050
67 5.766392 125.831482 872.656799 160.158691 -45.484905 122.312202 881.701050
[R_Hip]
65 5.765438 125.836372 -872.654907 38.087841 49.812687 125.703735 881.699829
66 5.765438 125.836372 -872.654907 38.087841 49.812687 125.703735 881.699829
67 5.765438 125.836372 -872.654907 38.087841 49.812687 125.703735 881.699829
[Rear_Leg01]
65 -192.298416 -925.602966 -0.001907 -163.001465 1.247720 -148.864883 945.367432
66 -192.298416 -925.602966 -0.001907 -160.149048 3.909777 -147.596207 945.367432
67 -192.298416 -925.602966 -0.001907 -157.846786 5.664289 -146.698715 945.367432
[Spine1]
65 290.604584 5.007505 0.000477 32.107353 -23.131487 -9.654621 290.647736
66 290.604584 5.007505 0.000477 33.221874 -23.029541 -11.529015 290.647736
67 290.604584 5.007505 0.000477 33.937820 -22.884388 -12.892762 290.647736
[L_Leg01]
65 761.932007 -0.002384 -0.069261 43.268513 -22.875570 -0.036046 761.932068
66 761.932007 -0.002384 -0.069261 35.789669 -27.558935 9.835790 761.932068
67 761.932007 -0.002384 -0.069261 27.084881 -30.055824 21.832924 761.932068
[L_Leg02]
65 1441.140503 -0.000954 -0.000715 2.918468 -0.187704 -131.930862 1441.140503
66 1441.140503 -0.000954 -0.000715 4.431356 -0.179942 -145.533173 1441.140503
67 1441.140503 -0.000954 -0.000715 5.861319 -0.136135 -158.136078 1441.140503
[L_Leg03]
65 1686.963989 -0.000715 -0.000954 -0.029898 0.014812 118.496109 1686.963989
66 1686.963989 -0.000715 -0.000954 -0.036454 0.017018 120.015205 1686.963989
67 1686.963989 -0.000715 -0.000954 -0.043026 0.019254 121.154007 1686.963989
[L_Foot]
65 3041.570068 -30.715107 11.297464 -35.289913 22.063896 39.989738 3041.746094
66 3041.570068 -30.715107 11.297464 -29.958542 18.563463 44.969177 3041.746094
67 3041.570068 -30.715107 11.297464 -24.114687 13.978886 48.947647 3041.746094
[L_Toe1_01]
65 -188.216690 -224.732346 -21.137953 93.748268 -6.254408 -172.327042 293.899567
66 -188.216690 -224.732346 -21.137953 93.851868 -6.895860 -173.398361 293.899567
67 -188.216690 -224.732346 -21.137953 93.911568 -7.250934 -174.041321 293.899567
[L_Toe2_01]
65 200.746536 -219.926590 148.838394 -90.425812 -25.713644 -52.158226 332.896027
66 200.746536 -219.926590 148.838394 -90.519707 -26.646660 -51.287846 332.896027
67 200.746536 -219.926590 148.838394 -90.586716 -27.179989 -50.748287 332.896027
[L_Toe3_01]
65 188.832520 -219.859131 -191.078659 -100.049202 14.553430 -67.701637 347.140900
66 188.832520 -219.859131 -191.078659 -99.560913 14.155450 -66.102303 347.140900
67 188.832520 -219.859131 -191.078659 -99.275978 13.938190 -65.093994 347.140900
[planeAlignerLeft]
65 0.812531 -811.448792 -0.314951 0.000000 -90.000000 -90.001900 811.449280
66 0.812531 -811.448792 -0.314951 0.000000 -90.000000 -90.001900 811.449280
67 0.812531 -811.448792 -0.314951 0.000000 -90.000000 -90.001900 811.449280
[L_Toe1_02]
65 413.761139 0.000477 0.000000 0.001384 -26.012932 0.001384 413.761139
66 413.761139 0.000477 0.000000 0.001384 -26.009197 0.001384 413.761139
67 413.761139 0.000477 0.000000 0.001384 -26.005451 0.001384 413.761139
[L_Toe1_03]
65 464.317322 0.000358 -0.000089 0.003812 54.135342 0.003812 464.317322
66 464.317322 0.000358 -0.000089 0.003901 54.986717 0.003901 464.317322
67 464.317322 0.000358 -0.000089 0.003955 55.477909 0.003955 464.317322
[L_Toe2_02]
65 342.235809 -0.000477 0.000238 0.001187 -72.805321 0.001187 342.235809
66 342.235809 -0.000477 0.000238 0.001187 -72.828133 0.001187 342.235809
67 342.235809 -0.000477 0.000238 0.001187 -72.850952 0.001187 342.235809
[L_Toe2_03]
65 420.210846 -0.000715 0.000000 0.019069 86.554344 0.020235 420.210846
66 420.210846 -0.000715 0.000000 -0.000887 86.699387 0.001446 420.210846
67 420.210846 -0.000715 0.000000 -0.022622 86.844330 -0.019124 420.210846
[L_Toe3_02]
65 329.270111 0.000954 0.000000 0.001178 -80.376694 0.001178 329.270111
66 329.270111 0.000954 0.000000 0.001177 -81.032158 0.001177 329.270111
67 329.270111 0.000954 0.000000 0.001177 -81.283142 0.001177 329.270111
[L_Toe3_03]
65 439.137451 -0.001907 0.000954 -179.995758 79.002502 -179.992249 439.137451
66 439.137451 -0.001907 0.000954 -179.996887 76.461739 -179.993362 439.137451
67 439.137451 -0.001907 0.000954 -179.997375 74.989601 -179.993835 439.137451
[planeLockWeightLeft]
65 -0.000954 0.000238 -0.000305 -0.011826 -0.004376 0.005620 0.001029
66 -0.000954 0.000238 -0.000305 -0.011826 -0.004376 0.005620 0.001029
67 -0.000954 0.000238 -0.000305 -0.011826 -0.004376 0.005620 0.001029
[R_Leg01]
65 761.455627 -0.001907 -0.000358 60.007473 -0.751414 28.651756 761.455688
66 761.455627 -0.001907 -0.000358 59.633930 8.139478 24.382738 761.455688
67 761.455627 -0.001907 -0.000358 59.750919 16.232542 21.472677 761.455688
[R_Leg02]
65 1441.140625 0.000000 -0.000238 -3.562236 -1.609631 166.337860 1441.140625
66 1441.140625 0.000000 -0.000238 -3.289468 -1.457095 178.941681 1441.140625
67 1441.140625 0.000000 -0.000238 -2.881118 -1.160281 -165.671753 1441.140625
[R_Leg03]
65 1686.963989 0.000954 0.001431 0.115215 -0.072189 142.329666 1686.963989
66 1686.963989 0.000954 0.001431 0.115363 -0.071952 142.094437 1686.963989
67 1686.963989 0.000954 0.001431 0.109912 -0.067536 140.684799 1686.963989
[R_Foot]
65 3041.560059 -30.531288 -11.204481 116.785309 -75.325516 5.600665 3041.734131
66 3041.560059 -30.531288 -11.204481 122.416618 -73.970604 -1.815517 3041.734131
67 3041.560059 -30.531288 -11.204481 126.653809 -72.856766 -10.049759 3041.734131
[planeAlignerRight]
65 -0.635147 -812.270569 -0.364304 0.000000 -89.960434 -90.005180 812.270874
66 -0.635147 -812.270569 -0.364304 0.000000 -89.960434 -90.005180 812.270874
67 -0.635147 -812.270569 -0.364304 0.000000 -89.960434 -90.005180 812.270874
[R_Toe1_01]
65 -188.383347 -224.864899 21.052242 76.651543 12.697204 -179.885895 294.101532
66 -188.383347 -224.864899 21.052242 76.654243 12.700969 -179.883667 294.101532
67 -188.383347 -224.864899 21.052242 76.656937 12.704733 -179.881454 294.101532
[R_Toe2_01]
65 200.637817 -220.002121 -148.787384 -94.864952 49.873459 -53.735069 332.857574
66 200.637817 -220.002121 -148.787384 -94.870003 49.894474 -53.729259 332.857574
67 200.637817 -220.002121 -148.787384 -94.875038 49.915501 -53.723446 332.857574
[R_Toe3_01]
65 188.606735 -220.092957 191.126343 -77.340279 1.718742 -53.820583 347.192566
66 188.606735 -220.092957 191.126343 -77.340004 1.720990 -53.805130 347.192566
67 188.606735 -220.092957 191.126343 -77.339737 1.723236 -53.789665 347.192566
[planeLockWeightRight]
65 -0.000477 0.000000 0.000000 -0.011823 -0.004379 -0.000027 0.000477
66 -0.000477 0.000000 0.000000 -0.011823 -0.004379 -0.000027 0.000477
67 -0.000477 0.000000 0.000000 -0.011823 -0.004379 -0.000027 0.000477
[R_Toe1_02]
65 413.762085 0.000477 -0.000119 0.001384 -25.953295 0.001384 413.762085
66 413.762085 0.000477 -0.000119 0.001384 -25.956257 0.001384 413.762085
67 413.762085 0.000477 -0.000119 0.001384 -25.959215 0.001384 413.762085
[R_Toe1_03]
65 464.317810 0.000000 0.001088 0.003939 55.332695 0.003939 464.317810
66 464.317810 0.000000 0.001088 0.003936 55.302898 0.003936 464.317810
67 464.317810 0.000000 0.001088 0.003933 55.273117 0.003933 464.317810
[R_Toe2_02]
65 342.234741 -0.000954 0.000238 0.001203 -64.759361 0.001203 342.234741
66 342.234741 -0.000954 0.000238 0.001203 -64.779861 0.001203 342.234741
67 342.234741 -0.000954 0.000238 0.001203 -64.800354 0.001203 342.234741
[R_Toe2_03]
65 420.210846 0.000715 -0.000268 -0.004922 68.934799 -0.001366 420.210846
66 420.210846 0.000715 -0.000268 -0.004925 68.951942 -0.001368 420.210846
67 420.210846 0.000715 -0.000268 -0.004927 68.969063 -0.001371 420.210846
[R_Toe3_02]
65 329.270355 -0.000477 -0.000954 0.001175 -84.310013 0.001175 329.270355
66 329.270355 -0.000477 -0.000954 0.001175 -84.317528 0.001175 329.270355
67 329.270355 -0.000477 -0.000954 0.001175 -84.325012 0.001175 329.270355
[R_Toe3_03]
65 439.137939 0.000238 0.001431 -179.996094 54.284233 -179.988754 439.137939
66 439.137939 0.000238 0.001431 -179.996094 54.264240 -179.988754 439.137939
67 439.137939 0.000238 0.001431 -179.996109 54.244244 -179.988770 439.137939
[Rear_Leg02]
65 1162.777710 -0.029802 0.005960 2.432672 -1.646533 -169.036713 1162.777710
66 1162.777710 -0.029802 0.005960 2.462100 -1.592318 -170.233215 1162.777710
67 1162.777710 -0.029802 0.005960 2.482600 -1.563565 -170.917938 1162.777710
[Rear_Leg03]
65 607.192505 -0.013351 -0.073195 0.010057 -0.005916 77.289238 607.192505
66 607.192505 -0.013351 -0.073195 0.010046 -0.005936 77.511047 607.192505
67 607.192505 -0.013351 -0.073195 0.010034 -0.005955 77.732841 607.192505
[Rear_Leg04]
65 995.874512 -0.020504 -0.011921 -0.043265 -0.017112 90.998146 995.874573
66 995.874512 -0.020504 -0.011921 -0.043390 -0.016793 91.841057 995.874573
67 995.874512 -0.020504 -0.011921 -0.043460 -0.016611 92.321991 995.874573
[Rear_Foot]
65 3096.176270 -0.067472 -0.041425 -164.551620 83.132675 44.872265 3096.176270
66 3096.176270 -0.067472 -0.041425 -123.257530 87.837257 86.627441 3096.176270
67 3096.176270 -0.067472 -0.041425 -23.065140 85.358604 -173.226456 3096.176270
[planeAlignerCenter]
65 0.350077 0.966311 -838.790894 0.000009 0.000003 -179.999985 838.791565
66 0.350077 0.966311 -838.790894 0.000009 0.000003 -179.999985 838.791565
67 0.350077 0.966311 -838.790894 0.000009 0.000003 -179.999985 838.791565
[Rear_Toe1_01]
65 0.653352 83.966492 -371.173737 0.294127 41.910378 90.409424 380.553192
66 0.653352 83.966492 -371.173737 0.294138 41.910313 90.409447 380.553192
67 0.653352 83.966492 -371.173737 0.294145 41.910255 90.409470 380.553192
[Rear_Toe2_01]
65 178.200760 -294.826019 -362.060547 -7.198542 34.404861 -66.271713 499.765686
66 178.200760 -294.826019 -362.060547 -7.198578 34.404839 -66.271721 499.765686
67 178.200760 -294.826019 -362.060547 -7.198613 34.404816 -66.271729 499.765686
[Rear_Toe3_01]
65 -153.359680 -308.780914 -362.060852 3.289901 33.514450 -112.541634 499.952881
66 -153.359680 -308.780914 -362.060852 3.289910 33.514393 -112.541641 499.952881
67 -153.359680 -308.780914 -362.060852 3.289917 33.514332 -112.541641 499.952881
[planeLockWeightCenter]
65 -0.000062 0.000238 0.000000 -0.011814 -0.004373 -0.000015 0.000246
66 -0.000062 0.000238 0.000000 -0.011814 -0.004373 -0.000015 0.000246
67 -0.000062 0.000238 0.000000 -0.011814 -0.004373 -0.000015 0.000246
[Rear_Toe1_02]
65 379.707825 0.194073 0.000477 -0.000242 -31.679310 0.006934 379.707855
66 379.707825 0.194073 0.000477 -0.000242 -31.679359 0.006934 379.707855
67 379.707825 0.194073 0.000477 -0.000242 -31.679398 0.006934 379.707855
[Rear_Toe1_03]
65 500.129700 0.165701 0.000119 -0.000102 51.910736 0.007296 500.129761
66 500.129700 0.165701 0.000119 -0.000102 51.910854 0.007296 500.129761
67 500.129700 0.165701 0.000119 -0.000102 51.910988 0.007296 500.129761
[Rear_Toe2_02]
65 340.494507 0.000238 -0.000954 0.001192 -69.857552 0.001192 340.494507
66 340.494507 0.000238 -0.000954 0.001192 -69.857567 0.001192 340.494507
67 340.494507 0.000238 -0.000954 0.001192 -69.857635 0.001192 340.494507
[Rear_Toe2_03]
65 433.103577 0.000000 0.000238 0.006697 69.813332 0.006697 433.103546
66 433.103577 0.000000 0.000238 0.006697 69.813393 0.006697 433.103546
67 433.103577 0.000000 0.000238 0.006697 69.813438 0.006697 433.103546
[Rear_Toe3_02]
65 340.494141 -0.000358 -0.000477 0.008289 -67.277679 -0.009461 340.494171
66 340.494141 -0.000358 -0.000477 0.008289 -67.277718 -0.009461 340.494171
67 340.494141 -0.000358 -0.000477 0.008289 -67.277771 -0.009461 340.494171
[Rear_Toe3_03]
65 433.103577 0.001431 -0.000238 -0.000972 65.958984 -0.004547 433.103546
66 433.103577 0.001431 -0.000238 -0.000972 65.958984 -0.004547 433.103546
67 433.103577 0.001431 -0.000238 -0.000972 65.958984 -0.004547 433.103546
[Back_Bone]
65 1312.175781 -701.934692 0.000954 0.000023 -0.000007 -85.606667 1488.125488
66 1312.175781 -701.934692 0.000954 0.000023 -0.000007 -85.606667 1488.125488
67 1312.175781 -701.934692 0.000954 0.000023 -0.000007 -85.606667 1488.125488
[Head]
65 1406.159424 809.709290 0.001431 -0.001877 -1.477166 -0.492926 1622.625488
66 1406.159424 809.709290 0.001431 -0.001882 -1.476075 1.555304 1622.625488
67 1406.159424 809.709290 0.001431 -0.001848 -1.474985 3.604187 1622.625488
[Motor_Bone]
65 1158.364380 -417.834747 0.000477 -4.268488 -1.697736 -105.700119 1231.419434
66 1158.364380 -417.834747 0.000477 -3.881639 -1.544211 -105.728859 1231.419434
67 1158.364380 -417.834747 0.000477 -3.494882 -1.390491 -105.756546 1231.419434
[Ping_Mechanism]
65 1234.283813 -433.659393 6.763916 0.000103 -0.000053 82.120995 1308.267090
66 1234.246216 -432.979553 6.942902 0.000103 -0.000053 82.120995 1308.007324
67 1234.208862 -432.299713 7.121887 0.000103 -0.000053 82.120995 1307.748169
[BN_LookIK]
65 193.241119 1380.371704 -0.002861 0.000000 89.965736 -31.038179 1393.832153
66 193.241119 1380.371704 -0.002861 0.000000 89.965736 -31.038179 1393.832153
67 193.241119 1380.371704 -0.002861 0.000000 89.965736 -31.038179 1393.832153
[bottomMouth]
65 -435.092926 615.759399 -0.000954 -0.000022 0.000016 73.527184 753.966492
66 -435.092926 615.759399 -0.000954 -0.000022 0.000016 73.527184 753.966492
67 -435.092926 615.759399 -0.000954 -0.000022 0.000016 73.527184 753.966492
[L_Mouth01]
65 554.440979 7.658243 838.222046 150.204178 23.759130 109.605339 1005.027161
66 554.440979 7.658243 838.222046 150.204178 23.759130 109.605339 1005.027161
67 554.440979 7.658243 838.222046 150.204178 23.759130 109.605339 1005.027161
[L_mouthFront]
65 551.629089 934.514771 339.150421 0.000081 2.804060 79.119301 1136.941284
66 551.629089 934.514771 339.150421 0.000081 2.804060 79.119301 1136.941284
67 551.629089 934.514771 339.150421 0.000081 2.804060 79.119301 1136.941284
[mouthGun]
65 55.332661 1627.420898 0.000000 0.000023 0.000009 -11.038128 1628.361328
66 55.332661 1627.420898 0.000000 0.000023 0.000009 -11.038128 1628.361328
67 55.332661 1627.420898 0.000000 0.000023 0.000009 -11.038128 1628.361328
[R_Mouth01]
65 554.442383 7.659197 -838.223938 29.795891 -23.759109 109.605331 1005.029541
66 554.442383 7.659197 -838.223938 29.795891 -23.759109 109.605331 1005.029541
67 554.442383 7.659197 -838.223938 29.795891 -23.759109 109.605331 1005.029541
[R_mouthFront]
65 551.629089 934.514282 -339.151367 0.000029 -2.803930 79.119133 1136.941162
66 551.629089 934.514282 -339.151367 0.000029 -2.803930 79.119133 1136.941162
67 551.629089 934.514282 -339.151367 0.000029 -2.803930 79.119133 1136.941162
[TopMouth]
65 461.269867 -56.106091 -0.008583 -0.000059 -0.000268 92.025169 464.669525
66 461.269867 -56.106091 -0.008583 -0.000059 -0.000268 92.025169 464.669525
67 461.269867 -56.106091 -0.008583 -0.000059 -0.000268 92.025169 464.669525
[weapon_bone]
65 -987.239868 1448.372803 0.001431 0.000000 89.965736 -31.038221 1752.833740
66 -987.239868 1448.372803 0.001431 0.000000 89.965736 -31.038221 1752.833740
67 -987.239868 1448.372803 0.001431 0.000000 89.965736 -31.038221 1752.833740
